<?xml version="1.0" encoding="UTF-8" standalone="no"?>
<!DOCTYPE svg PUBLIC "-//W3C//DTD SVG 1.1//EN" "http://www.w3.org/Graphics/SVG/1.1/DTD/svg11.dtd">
<svg width="100%" height="100%" viewBox="0 0 20 20" version="1.1" xmlns="http://www.w3.org/2000/svg" xmlns:xlink="http://www.w3.org/1999/xlink" xml:space="preserve" xmlns:serif="http://www.serif.com/" style="fill-rule:evenodd;clip-rule:evenodd;stroke-linecap:round;stroke-linejoin:round;">
    <g transform="matrix(1,0,0,1,10,10)">
        <g id="Building_03.svg" transform="matrix(1,0,0,1,-10,-10)">
            <path d="M1.667,16.667L3.333,16.667M3.333,16.667L12.5,16.667M3.333,16.667L3.333,11.974C3.333,11.536 3.333,11.317 3.386,11.113C3.432,10.932 3.509,10.76 3.613,10.604C3.729,10.429 3.893,10.282 4.218,9.99L6.136,8.267C6.765,7.702 7.08,7.419 7.435,7.312C7.749,7.217 8.084,7.217 8.398,7.312C8.754,7.419 9.069,7.702 9.699,8.268L11.616,9.99C11.941,10.282 12.104,10.429 12.221,10.604C12.324,10.76 12.401,10.932 12.447,11.113C12.5,11.317 12.5,11.536 12.5,11.974L12.5,16.667M12.5,16.667L16.667,16.667M16.667,16.667L18.333,16.667M16.667,16.667L16.667,5.997C16.667,5.066 16.667,4.599 16.485,4.243C16.326,3.93 16.07,3.675 15.756,3.515C15.4,3.333 14.934,3.333 14,3.333L8.5,3.333C7.567,3.333 7.1,3.333 6.743,3.515C6.43,3.675 6.175,3.93 6.015,4.243C5.833,4.6 5.833,5.067 5.833,6L5.833,8.333" style="fill:none;fill-rule:nonzero;stroke:rgb(109,117,136);stroke-width:2px;"/>
        </g>
        <g id="Building_03.svg1" serif:id="Building_03.svg">
        </g>
    </g>
</svg>
