<?xml version="1.0" encoding="UTF-8" standalone="no"?>
<!DOCTYPE svg PUBLIC "-//W3C//DTD SVG 1.1//EN" "http://www.w3.org/Graphics/SVG/1.1/DTD/svg11.dtd">
<svg width="100%" height="100%" viewBox="0 0 20 20" version="1.1" xmlns="http://www.w3.org/2000/svg" xmlns:xlink="http://www.w3.org/1999/xlink" xml:space="preserve" xmlns:serif="http://www.serif.com/" style="fill-rule:evenodd;clip-rule:evenodd;stroke-linecap:round;stroke-linejoin:round;">
    <g>
        <g id="Comment-Dots.svg" serif:id="Comment Dots.svg" transform="matrix(0.8,0,0,0.8,10,10)">
            <g transform="matrix(1,0,0,1,-12,-12.5)">
                <g>
                    <path d="M12.5,21.5C17.471,21.5 21.5,17.471 21.5,12.5C21.5,7.529 17.471,3.5 12.5,3.5C7.529,3.5 3.5,7.529 3.5,12.5C3.5,13.988 3.861,15.391 4.5,16.627L3.5,21.5L8.373,20.5C9.609,21.139 11.012,21.5 12.5,21.5Z" style="fill:none;fill-rule:nonzero;stroke:rgb(16,6,41);stroke-width:2px;"/>
                    <rect x="8" y="12.5" width="0.01" height="0.01" style="fill:none;stroke:rgb(16,6,41);stroke-width:3px;stroke-linecap:butt;"/>
                    <rect x="12.5" y="12.5" width="0.01" height="0.01" style="fill:none;stroke:rgb(16,6,41);stroke-width:3px;stroke-linecap:butt;"/>
                    <rect x="17" y="12.5" width="0.01" height="0.01" style="fill:none;stroke:rgb(16,6,41);stroke-width:3px;stroke-linecap:butt;"/>
                </g>
            </g>
        </g>
        <g transform="matrix(1,0,0,1,-0.287704,-0.0696639)">
            <circle cx="7.058" cy="10.07" r="1.31" style="fill:rgb(16,6,41);"/>
        </g>
        <g transform="matrix(1,0,0,1,3.30103,-0.0696639)">
            <circle cx="7.058" cy="10.07" r="1.31" style="fill:rgb(16,6,41);"/>
        </g>
        <g transform="matrix(1,0,0,1,6.9049,-0.0696639)">
            <circle cx="7.058" cy="10.07" r="1.31" style="fill:rgb(16,6,41);"/>
        </g>
    </g>
</svg>
