<svg width="16" height="20" viewBox="0 0 16 20" fill="none" xmlns="http://www.w3.org/2000/svg">
<path d="M14.75 7.5C14.75 8.2059 14.5085 9.11713 14.0636 10.171C13.624 11.2124 13.011 12.335 12.3259 13.4463C10.9565 15.6677 9.33494 17.7865 8.3407 19.0308C8.16053 19.2541 7.83947 19.2541 7.6593 19.0308C6.66506 17.7865 5.04353 15.6677 3.67408 13.4463C2.98902 12.335 2.37602 11.2124 1.93638 10.171C1.49149 9.11713 1.25 8.2059 1.25 7.5C1.25 3.77359 4.27359 0.75 8 0.75C11.7264 0.75 14.75 3.77359 14.75 7.5ZM10.2981 5.2019C9.6886 4.59241 8.86195 4.25 8 4.25C7.13805 4.25 6.3114 4.59241 5.7019 5.2019C5.09241 5.8114 4.75 6.63805 4.75 7.5C4.75 8.36195 5.09241 9.1886 5.7019 9.7981C6.3114 10.4076 7.13805 10.75 8 10.75C8.86195 10.75 9.6886 10.4076 10.2981 9.7981C10.9076 9.1886 11.25 8.36195 11.25 7.5C11.25 6.63805 10.9076 5.8114 10.2981 5.2019Z" stroke="black" stroke-width="1.5"/>
</svg>
