<svg width="20" height="20" viewBox="0 0 20 20" fill="none" xmlns="http://www.w3.org/2000/svg">
<g clip-path="url(#clip0_2971_4786)">
<path d="M3 5V12C3 13.1031 3.89687 14 5 14H18C19.1031 14 20 13.1031 20 12V5C20 3.89688 19.1031 3 18 3H5C3.89687 3 3 3.89688 3 5ZM5 10C6.10313 10 7 10.8969 7 12H5V10ZM7 5C7 6.10313 6.10313 7 5 7V5H7ZM18 10V12H16C16 10.8969 16.8969 10 18 10ZM16 5H18V7C16.8969 7 16 6.10313 16 5ZM9 8.5C9 7.83696 9.26339 7.20107 9.73223 6.73223C10.2011 6.26339 10.837 6 11.5 6C12.163 6 12.7989 6.26339 13.2678 6.73223C13.7366 7.20107 14 7.83696 14 8.5C14 9.16304 13.7366 9.79893 13.2678 10.2678C12.7989 10.7366 12.163 11 11.5 11C10.837 11 10.2011 10.7366 9.73223 10.2678C9.26339 9.79893 9 9.16304 9 8.5ZM1.5 5.75C1.5 5.33437 1.16562 5 0.75 5C0.334375 5 0 5.33437 0 5.75V13.25C0 15.3219 1.67812 17 3.75 17H16.25C16.6656 17 17 16.6656 17 16.25C17 15.8344 16.6656 15.5 16.25 15.5H3.75C2.50625 15.5 1.5 14.4937 1.5 13.25V5.75Z" fill="black"/>
</g>
<defs>
<clipPath id="clip0_2971_4786">
<rect width="20" height="20" fill="white"/>
</clipPath>
</defs>
</svg>
