<svg width="20" height="20" viewBox="0 0 20 20" fill="none" xmlns="http://www.w3.org/2000/svg">
<circle cx="2.7" cy="2.7" r="2.7" transform="matrix(-1 0 0 1 12.2192 7.3)" stroke="#6D7588" stroke-width="2"/>
<path d="M13.569 3.64375L14.069 2.77772V2.77772L13.569 3.64375ZM13.569 16.3559L14.069 17.222L13.569 16.3559ZM5.46902 16.3559L4.96902 17.222H4.96902L5.46902 16.3559ZM5.46902 3.64375L5.96902 4.50978L5.46902 3.64375ZM6.73642 1.96824L5.76703 1.72269L6.73642 1.96824ZM7.35882 1.26091L7.59802 2.23188L7.35882 1.26091ZM1.38463 7.9573L0.730357 8.71356L1.38463 7.9573ZM1.04137 6.97102L0.0996865 6.63453L1.04137 6.97102ZM3.55447 16.0539L3.34507 15.076L3.55447 16.0539ZM2.64524 15.8099L1.88183 16.4559L2.64524 15.8099ZM7.3589 18.7391L7.5981 17.7681L7.3589 18.7391ZM6.73648 18.0317L7.70588 17.7862L6.73648 18.0317ZM12.3016 18.0317L13.271 18.2771L12.3016 18.0317ZM11.6792 18.7391L11.9184 19.71L11.6792 18.7391ZM16.3927 15.8099L17.1561 16.4558L16.3927 15.8099ZM15.4835 16.0538L15.2741 17.0317L15.4835 16.0538ZM17.9965 6.97103L18.9382 6.63454L17.9965 6.97103ZM17.6533 7.9573L16.999 7.20104L17.6533 7.9573ZM1.04137 13.029L0.0996866 13.3655L1.04137 13.029ZM1.38463 12.0427L2.0389 12.799L1.38463 12.0427ZM16.3925 4.1898L15.6291 4.83574L16.3925 4.1898ZM3.55462 3.94585L3.34528 4.9237L3.55462 3.94585ZM17.6533 12.0427L16.999 12.799L17.6533 12.0427ZM17.9965 13.029L18.9382 13.3655L17.9965 13.029ZM12.3016 1.96826L11.3322 2.21382L12.3016 1.96826ZM11.3322 2.21382C11.5685 3.14659 12.1684 3.98983 13.069 4.50978L14.069 2.77772C13.655 2.53869 13.3802 2.15369 13.271 1.7227L11.3322 2.21382ZM13.069 4.50978C13.8943 4.98624 14.8292 5.10854 15.6927 4.92372L15.274 2.96802C14.876 3.05323 14.449 2.99709 14.069 2.77772L13.069 4.50978ZM18.9382 6.63454C18.5306 5.4937 17.922 4.44934 17.1558 3.54385L15.6291 4.83574C16.2429 5.56116 16.7294 6.39658 17.0549 7.30752L18.9382 6.63454ZM17.719 10C17.719 9.48637 17.9455 9.02679 18.3076 8.71356L16.999 7.20104C16.2166 7.87798 15.719 8.88144 15.719 10H17.719ZM18.3076 11.2864C17.9455 10.9732 17.719 10.5136 17.719 10H15.719C15.719 11.1186 16.2166 12.122 16.999 12.799L18.3076 11.2864ZM17.1561 16.4558C17.9222 15.5504 18.5306 14.5062 18.9382 13.3655L17.0549 12.6925C16.7294 13.6033 16.243 14.4386 15.6293 15.164L17.1561 16.4558ZM14.069 17.222C14.449 17.0026 14.876 16.9464 15.2741 17.0317L15.6929 15.076C14.8294 14.8911 13.8944 15.0134 13.069 15.4899L14.069 17.222ZM13.271 18.2771C13.3801 17.8461 13.655 17.461 14.069 17.222L13.069 15.4899C12.1683 16.0099 11.5684 16.8533 11.3322 17.7862L13.271 18.2771ZM9.51896 20C10.3449 20 11.1487 19.8997 11.9184 19.71L11.44 17.7681C10.8256 17.9195 10.1824 18 9.51896 18V20ZM7.11971 19.7101C7.88935 19.8997 8.69312 20 9.51896 20V18C8.8556 18 8.21242 17.9195 7.5981 17.7681L7.11971 19.7101ZM4.96902 17.222C5.38308 17.461 5.65793 17.8461 5.76707 18.2771L7.70588 17.7862C7.46966 16.8533 6.86971 16.0099 5.96902 15.4899L4.96902 17.222ZM3.76387 17.0317C4.16197 16.9464 4.58903 17.0026 4.96902 17.222L5.96902 15.4899C5.14366 15.0134 4.20858 14.8911 3.34507 15.076L3.76387 17.0317ZM0.0996866 13.3655C0.507295 14.5062 1.11576 15.5504 1.88183 16.4559L3.40865 15.164C2.79492 14.4387 2.30853 13.6033 1.98306 12.6925L0.0996866 13.3655ZM1.31896 10C1.31896 10.5136 1.09241 10.9732 0.730357 11.2864L2.0389 12.799C2.82137 12.122 3.31896 11.1186 3.31896 10H1.31896ZM0.730357 8.71356C1.09241 9.02679 1.31896 9.48637 1.31896 10H3.31896C3.31896 8.88145 2.82137 7.87798 2.0389 7.20104L0.730357 8.71356ZM1.8821 3.54382C1.1159 4.44932 0.507343 5.49369 0.0996865 6.63453L1.98306 7.30752C2.30857 6.39657 2.79504 5.56114 3.40887 4.83572L1.8821 3.54382ZM4.96902 2.77772C4.58906 2.9971 4.16204 3.05323 3.76396 2.96801L3.34528 4.9237C4.20874 5.10855 5.14373 4.98626 5.96902 4.50978L4.96902 2.77772ZM5.76703 1.72269C5.65786 2.15368 5.38304 2.53869 4.96902 2.77772L5.96902 4.50978C6.86961 3.98982 7.46952 3.14657 7.7058 2.21379L5.76703 1.72269ZM9.51896 0C8.69309 0 7.88928 0.100328 7.11962 0.289936L7.59802 2.23188C8.21237 2.08053 8.85557 2 9.51896 2V0ZM11.9185 0.289976C11.1487 0.100342 10.3449 0 9.51896 0V2C10.1824 2 10.8256 2.08054 11.44 2.23191L11.9185 0.289976ZM7.7058 2.21379C7.71071 2.19443 7.7167 2.17899 7.72186 2.16836C7.72708 2.15764 7.72952 2.15574 7.72581 2.16021C7.72189 2.16494 7.7099 2.17814 7.68723 2.19316C7.6636 2.20881 7.63305 2.22325 7.59802 2.23188L7.11962 0.289936C6.2992 0.49205 5.90077 1.19473 5.76703 1.72269L7.7058 2.21379ZM2.0389 7.20104C2.02173 7.18618 2.00833 7.17117 1.9992 7.15868C1.98997 7.14604 1.98851 7.14069 1.99025 7.1452C1.99213 7.15009 1.99849 7.16869 1.99978 7.19964C2.00113 7.23228 1.99637 7.27027 1.98306 7.30752L0.0996865 6.63453C-0.222416 7.53596 0.277156 8.32148 0.730357 8.71356L2.0389 7.20104ZM3.34507 15.076C3.32561 15.0802 3.30919 15.0817 3.29742 15.0817C3.28555 15.0818 3.28277 15.0805 3.28839 15.0818C3.29433 15.0832 3.31137 15.0881 3.33474 15.1016C3.35911 15.1158 3.38547 15.1366 3.40865 15.164L1.88183 16.4559C2.42652 17.0996 3.23132 17.1457 3.76387 17.0317L3.34507 15.076ZM7.5981 17.7681C7.63312 17.7768 7.66368 17.7912 7.68731 17.8069C7.70999 17.8219 7.72198 17.8351 7.7259 17.8398C7.72961 17.8443 7.72716 17.8424 7.72194 17.8317C7.71678 17.821 7.71079 17.8056 7.70588 17.7862L5.76707 18.2771C5.90077 18.8052 6.2992 19.508 7.11971 19.7101L7.5981 17.7681ZM11.3322 17.7862C11.3273 17.8056 11.3213 17.821 11.3161 17.8316C11.3109 17.8424 11.3084 17.8443 11.3122 17.8398C11.3161 17.8351 11.3281 17.8219 11.3507 17.8068C11.3744 17.7912 11.4049 17.7767 11.44 17.7681L11.9184 19.71C12.7389 19.5079 13.1373 18.8051 13.271 18.2771L11.3322 17.7862ZM15.6293 15.164C15.6525 15.1366 15.6788 15.1158 15.7032 15.1016C15.7266 15.0881 15.7436 15.0832 15.7495 15.0818C15.7552 15.0805 15.7524 15.0818 15.7405 15.0817C15.7288 15.0816 15.7123 15.0802 15.6929 15.076L15.2741 17.0317C15.8067 17.1457 16.6114 17.0996 17.1561 16.4558L15.6293 15.164ZM17.0549 7.30752C17.0415 7.27027 17.0368 7.23228 17.0381 7.19964C17.0394 7.16869 17.0458 7.15009 17.0477 7.1452C17.0494 7.14069 17.0479 7.14604 17.0387 7.15868C17.0296 7.17117 17.0162 7.18618 16.999 7.20104L18.3076 8.71356C18.7608 8.32148 19.2603 7.53596 18.9382 6.63454L17.0549 7.30752ZM1.98306 12.6925C1.99637 12.7297 2.00113 12.7677 1.99978 12.8004C1.99849 12.8313 1.99213 12.8499 1.99024 12.8548C1.98851 12.8593 1.98997 12.854 1.9992 12.8413C2.00833 12.8288 2.02173 12.8138 2.0389 12.799L0.730357 11.2864C0.277156 11.6785 -0.222416 12.464 0.0996866 13.3655L1.98306 12.6925ZM15.6927 4.92372C15.7121 4.91956 15.7285 4.91809 15.7403 4.91802C15.7522 4.91794 15.7549 4.91928 15.7493 4.91795C15.7434 4.91654 15.7263 4.91168 15.703 4.89811C15.6786 4.88398 15.6523 4.86313 15.6291 4.83574L17.1558 3.54385C16.6112 2.90019 15.8065 2.85404 15.274 2.96802L15.6927 4.92372ZM3.40887 4.83572C3.38569 4.86311 3.35933 4.88395 3.33497 4.89809C3.31159 4.91166 3.29455 4.91652 3.28861 4.91793C3.28299 4.91926 3.28577 4.91791 3.29764 4.91799C3.3094 4.91807 3.32583 4.91953 3.34528 4.9237L3.76396 2.96801C3.23146 2.85401 2.42676 2.90015 1.8821 3.54382L3.40887 4.83572ZM16.999 12.799C17.0162 12.8138 17.0296 12.8288 17.0387 12.8413C17.0479 12.854 17.0494 12.8593 17.0477 12.8548C17.0458 12.8499 17.0394 12.8313 17.0381 12.8004C17.0368 12.7677 17.0415 12.7297 17.0549 12.6925L18.9382 13.3655C19.2603 12.464 18.7608 11.6785 18.3076 11.2864L16.999 12.799ZM13.271 1.7227C13.1373 1.19476 12.7389 0.492098 11.9185 0.289976L11.44 2.23191C11.405 2.22328 11.3744 2.20885 11.3508 2.19319C11.3281 2.17817 11.3162 2.16498 11.3122 2.16024C11.3085 2.15577 11.311 2.15767 11.3162 2.16839C11.3214 2.17902 11.3273 2.19446 11.3322 2.21382L13.271 1.7227Z" fill="#6D7588"/>
</svg>
