<?xml version="1.0" encoding="UTF-8" standalone="no"?>
<!DOCTYPE svg PUBLIC "-//W3C//DTD SVG 1.1//EN" "http://www.w3.org/Graphics/SVG/1.1/DTD/svg11.dtd">
<svg width="100%" height="100%" viewBox="0 0 20 20" version="1.1" xmlns="http://www.w3.org/2000/svg" xmlns:xlink="http://www.w3.org/1999/xlink" xml:space="preserve" xmlns:serif="http://www.serif.com/" style="fill-rule:evenodd;clip-rule:evenodd;stroke-linecap:round;stroke-linejoin:round;">
    <g transform="matrix(1,0,0,1,10,10)">
        <g id="Category-1.svg" serif:id="Category 1.svg" transform="matrix(1,0,0,1,-10,-10)">
            <g>
                <circle cx="15" cy="5" r="3" style="fill:none;stroke:rgb(237,28,36);stroke-width:2px;"/>
                <circle cx="5" cy="15" r="3" style="fill:none;stroke:rgb(237,28,36);stroke-width:2px;"/>
                <path d="M12,12L18,12L18,17C18,17.552 17.552,18 17,18L13,18C12.448,18 12,17.552 12,17L12,12Z" style="fill:none;fill-rule:nonzero;stroke:rgb(237,28,36);stroke-width:2px;"/>
                <path d="M2,2L8,2L8,7C8,7.552 7.552,8 7,8L3,8C2.448,8 2,7.552 2,7L2,2Z" style="fill:none;fill-rule:nonzero;stroke:rgb(237,28,36);stroke-width:2px;"/>
            </g>
        </g>
        <g id="Category-1.svg1" serif:id="Category 1.svg">
        </g>
    </g>
</svg>
