<?xml version="1.0" encoding="UTF-8" standalone="no"?>
<!DOCTYPE svg PUBLIC "-//W3C//DTD SVG 1.1//EN" "http://www.w3.org/Graphics/SVG/1.1/DTD/svg11.dtd">
<svg width="100%" height="100%" viewBox="0 0 24 24" version="1.1" xmlns="http://www.w3.org/2000/svg" xmlns:xlink="http://www.w3.org/1999/xlink" xml:space="preserve" xmlns:serif="http://www.serif.com/" style="fill-rule:evenodd;clip-rule:evenodd;">
    <g transform="matrix(1.2,0,0,1.2,12,12)">
        <g id="Settings.svg" transform="matrix(1,0,0,1,-10,-10)">
            <clipPath id="_clip1">
                <rect x="0" y="0" width="20" height="20"/>
            </clipPath>
            <g clip-path="url(#_clip1)">
                <g transform="matrix(-1,0,0,1,12.219,7.3)">
                    <circle cx="2.7" cy="2.7" r="2.7" style="fill:none;stroke:rgb(109,117,136);stroke-width:2px;"/>
                </g>
                <path d="M13.569,3.644L14.069,2.778L13.569,3.644ZM13.569,16.356L14.069,17.222L13.569,16.356ZM5.469,16.356L4.969,17.222L5.469,16.356ZM5.469,3.644L5.969,4.51L5.469,3.644ZM6.736,1.968L5.767,1.723L6.736,1.968ZM7.359,1.261L7.598,2.232L7.359,1.261ZM1.385,7.957L0.73,8.714L1.385,7.957ZM1.041,6.971L0.1,6.635L1.041,6.971ZM3.554,16.054L3.345,15.076L3.554,16.054ZM2.645,15.81L1.882,16.456L2.645,15.81ZM7.359,18.739L7.598,17.768L7.359,18.739ZM6.736,18.032L7.706,17.786L6.736,18.032ZM12.302,18.032L13.271,18.277L12.302,18.032ZM11.679,18.739L11.918,19.71L11.679,18.739ZM16.393,15.81L17.156,16.456L16.393,15.81ZM15.483,16.054L15.274,17.032L15.483,16.054ZM17.997,6.971L18.938,6.635L17.997,6.971ZM17.653,7.957L16.999,7.201L17.653,7.957ZM1.041,13.029L0.1,13.366L1.041,13.029ZM1.385,12.043L2.039,12.799L1.385,12.043ZM16.392,4.19L15.629,4.836L16.392,4.19ZM3.555,3.946L3.345,4.924L3.555,3.946ZM17.653,12.043L16.999,12.799L17.653,12.043ZM17.997,13.029L18.938,13.366L17.997,13.029ZM12.302,1.968L11.332,2.214L12.302,1.968ZM11.332,2.214C11.569,3.147 12.168,3.99 13.069,4.51L14.069,2.778C13.655,2.539 13.38,2.154 13.271,1.723L11.332,2.214ZM13.069,4.51C13.894,4.986 14.829,5.109 15.693,4.924L15.274,2.968C14.876,3.053 14.449,2.997 14.069,2.778L13.069,4.51ZM18.938,6.635C18.531,5.494 17.922,4.449 17.156,3.544L15.629,4.836C16.243,5.561 16.729,6.397 17.055,7.308L18.938,6.635ZM17.719,10C17.719,9.486 17.946,9.027 18.308,8.714L16.999,7.201C16.217,7.878 15.719,8.881 15.719,10L17.719,10ZM18.308,11.286C17.946,10.973 17.719,10.514 17.719,10L15.719,10C15.719,11.119 16.217,12.122 16.999,12.799L18.308,11.286ZM17.156,16.456C17.922,15.55 18.531,14.506 18.938,13.366L17.055,12.693C16.729,13.603 16.243,14.439 15.629,15.164L17.156,16.456ZM14.069,17.222C14.449,17.003 14.876,16.946 15.274,17.032L15.693,15.076C14.829,14.891 13.894,15.013 13.069,15.49L14.069,17.222ZM13.271,18.277C13.38,17.846 13.655,17.461 14.069,17.222L13.069,15.49C12.168,16.01 11.568,16.853 11.332,17.786L13.271,18.277ZM9.519,20C10.345,20 11.149,19.9 11.918,19.71L11.44,17.768C10.826,17.92 10.182,18 9.519,18L9.519,20ZM7.12,19.71C7.889,19.9 8.693,20 9.519,20L9.519,18C8.856,18 8.212,17.92 7.598,17.768L7.12,19.71ZM4.969,17.222C5.383,17.461 5.658,17.846 5.767,18.277L7.706,17.786C7.47,16.853 6.87,16.01 5.969,15.49L4.969,17.222ZM3.764,17.032C4.162,16.946 4.589,17.003 4.969,17.222L5.969,15.49C5.144,15.013 4.209,14.891 3.345,15.076L3.764,17.032ZM0.1,13.366C0.507,14.506 1.116,15.55 1.882,16.456L3.409,15.164C2.795,14.439 2.309,13.603 1.983,12.693L0.1,13.366ZM1.319,10C1.319,10.514 1.092,10.973 0.73,11.286L2.039,12.799C2.821,12.122 3.319,11.119 3.319,10L1.319,10ZM0.73,8.714C1.092,9.027 1.319,9.486 1.319,10L3.319,10C3.319,8.881 2.821,7.878 2.039,7.201L0.73,8.714ZM1.882,3.544C1.116,4.449 0.507,5.494 0.1,6.635L1.983,7.308C2.309,6.397 2.795,5.561 3.409,4.836L1.882,3.544ZM4.969,2.778C4.589,2.997 4.162,3.053 3.764,2.968L3.345,4.924C4.209,5.109 5.144,4.986 5.969,4.51L4.969,2.778ZM5.767,1.723C5.658,2.154 5.383,2.539 4.969,2.778L5.969,4.51C6.87,3.99 7.47,3.147 7.706,2.214L5.767,1.723ZM9.519,0C8.693,0 7.889,0.1 7.12,0.29L7.598,2.232C8.212,2.081 8.856,2 9.519,2L9.519,0ZM11.919,0.29C11.149,0.1 10.345,0 9.519,0L9.519,2C10.182,2 10.826,2.081 11.44,2.232L11.919,0.29ZM7.706,2.214C7.711,2.194 7.717,2.179 7.722,2.168C7.727,2.158 7.73,2.156 7.726,2.16C7.722,2.165 7.71,2.178 7.687,2.193C7.664,2.209 7.633,2.223 7.598,2.232L7.12,0.29C6.299,0.492 5.901,1.195 5.767,1.723L7.706,2.214ZM2.039,7.201C2.022,7.186 2.008,7.171 1.999,7.159C1.99,7.146 1.989,7.141 1.99,7.145C1.992,7.15 1.998,7.169 2,7.2C2.001,7.232 1.996,7.27 1.983,7.308L0.1,6.635C-0.222,7.536 0.277,8.321 0.73,8.714L2.039,7.201ZM3.345,15.076C3.326,15.08 3.309,15.082 3.297,15.082C3.286,15.082 3.283,15.081 3.288,15.082C3.294,15.083 3.311,15.088 3.335,15.102C3.359,15.116 3.385,15.137 3.409,15.164L1.882,16.456C2.427,17.1 3.231,17.146 3.764,17.032L3.345,15.076ZM7.598,17.768C7.633,17.777 7.664,17.791 7.687,17.807C7.71,17.822 7.722,17.835 7.726,17.84C7.73,17.844 7.727,17.842 7.722,17.832C7.717,17.821 7.711,17.806 7.706,17.786L5.767,18.277C5.901,18.805 6.299,19.508 7.12,19.71L7.598,17.768ZM11.332,17.786C11.327,17.806 11.321,17.821 11.316,17.832C11.311,17.842 11.308,17.844 11.312,17.84C11.316,17.835 11.328,17.822 11.351,17.807C11.374,17.791 11.405,17.777 11.44,17.768L11.918,19.71C12.739,19.508 13.137,18.805 13.271,18.277L11.332,17.786ZM15.629,15.164C15.653,15.137 15.679,15.116 15.703,15.102C15.727,15.088 15.744,15.083 15.749,15.082C15.755,15.081 15.752,15.082 15.741,15.082C15.729,15.082 15.712,15.08 15.693,15.076L15.274,17.032C15.807,17.146 16.611,17.1 17.156,16.456L15.629,15.164ZM17.055,7.308C17.042,7.27 17.037,7.232 17.038,7.2C17.039,7.169 17.046,7.15 17.048,7.145C17.049,7.141 17.048,7.146 17.039,7.159C17.03,7.171 17.016,7.186 16.999,7.201L18.308,8.714C18.761,8.321 19.26,7.536 18.938,6.635L17.055,7.308ZM1.983,12.693C1.996,12.73 2.001,12.768 2,12.8C1.998,12.831 1.992,12.85 1.99,12.855C1.989,12.859 1.99,12.854 1.999,12.841C2.008,12.829 2.022,12.814 2.039,12.799L0.73,11.286C0.277,11.679 -0.222,12.464 0.1,13.366L1.983,12.693ZM15.693,4.924C15.712,4.92 15.729,4.918 15.74,4.918C15.752,4.918 15.755,4.919 15.749,4.918C15.743,4.917 15.726,4.912 15.703,4.898C15.679,4.884 15.652,4.863 15.629,4.836L17.156,3.544C16.611,2.9 15.807,2.854 15.274,2.968L15.693,4.924ZM3.409,4.836C3.386,4.863 3.359,4.884 3.335,4.898C3.312,4.912 3.295,4.917 3.289,4.918C3.283,4.919 3.286,4.918 3.298,4.918C3.309,4.918 3.326,4.92 3.345,4.924L3.764,2.968C3.231,2.854 2.427,2.9 1.882,3.544L3.409,4.836ZM16.999,12.799C17.016,12.814 17.03,12.829 17.039,12.841C17.048,12.854 17.049,12.859 17.048,12.855C17.046,12.85 17.039,12.831 17.038,12.8C17.037,12.768 17.042,12.73 17.055,12.693L18.938,13.366C19.26,12.464 18.761,11.679 18.308,11.286L16.999,12.799ZM13.271,1.723C13.137,1.195 12.739,0.492 11.919,0.29L11.44,2.232C11.405,2.223 11.374,2.209 11.351,2.193C11.328,2.178 11.316,2.165 11.312,2.16C11.309,2.156 11.311,2.158 11.316,2.168C11.321,2.179 11.327,2.194 11.332,2.214L13.271,1.723Z" style="fill:rgb(109,117,136);fill-rule:nonzero;"/>
            </g>
        </g>
        <g id="Settings.svg1" serif:id="Settings.svg">
        </g>
    </g>
</svg>
