<?xml version="1.0" encoding="UTF-8" standalone="no"?>
<!DOCTYPE svg PUBLIC "-//W3C//DTD SVG 1.1//EN" "http://www.w3.org/Graphics/SVG/1.1/DTD/svg11.dtd">
<svg width="100%" height="100%" viewBox="0 0 20 20" version="1.1" xmlns="http://www.w3.org/2000/svg" xmlns:xlink="http://www.w3.org/1999/xlink" xml:space="preserve" xmlns:serif="http://www.serif.com/" style="fill-rule:evenodd;clip-rule:evenodd;stroke-linejoin:round;">
    <g>
        <path d="M3,14L17,14L17,17C17,18.105 16.105,19 15,19L5,19C3.895,19 3,18.105 3,17L3,14Z" style="fill:none;fill-rule:nonzero;stroke:rgb(109,117,136);stroke-width:2px;"/>
        <path d="M2,5L18,5L18,12C18,13.105 17.105,14 16,14L4,14C2.895,14 2,13.105 2,12L2,5Z" style="fill:none;fill-rule:nonzero;stroke:rgb(109,117,136);stroke-width:2px;"/>
        <rect x="10" y="10" width="0.01" height="0.01" style="fill:none;stroke:rgb(109,117,136);stroke-width:3px;"/>
        <g transform="matrix(1,0,0,1,-0.0119776,-0.104192)">
            <circle cx="10.012" cy="10.104" r="1.601" style="fill:rgb(109,117,136);"/>
        </g>
        <path d="M7,3C7,1.895 7.895,1 9,1L11,1C12.105,1 13,1.895 13,3L13,5L7,5L7,3Z" style="fill:none;fill-rule:nonzero;stroke:rgb(109,117,136);stroke-width:2px;"/>
    </g>
</svg>
