<?xml version="1.0" encoding="UTF-8" standalone="no"?>
<!DOCTYPE svg PUBLIC "-//W3C//DTD SVG 1.1//EN" "http://www.w3.org/Graphics/SVG/1.1/DTD/svg11.dtd">
<svg width="100%" height="100%" viewBox="0 0 25 24" version="1.1" xmlns="http://www.w3.org/2000/svg" xmlns:xlink="http://www.w3.org/1999/xlink" xml:space="preserve" xmlns:serif="http://www.serif.com/" style="fill-rule:evenodd;clip-rule:evenodd;stroke-linecap:round;stroke-linejoin:round;">
    <path d="M18.554,19.634L20.692,19.634C20.88,19.637 21.066,19.594 21.234,19.51C21.402,19.425 21.547,19.301 21.656,19.148C21.766,18.996 21.837,18.819 21.863,18.632C21.89,18.446 21.871,18.256 21.808,18.079C21.262,16.912 20.399,15.923 19.317,15.224C18.235,14.525 16.979,14.146 15.691,14.129M15.691,11.37C16.172,11.37 16.648,11.275 17.093,11.091C17.538,10.907 17.942,10.637 18.282,10.297C18.623,9.957 18.892,9.553 19.077,9.108C19.261,8.664 19.356,8.187 19.356,7.706C19.357,7.224 19.263,6.746 19.08,6.301C18.896,5.855 18.626,5.45 18.286,5.108C17.945,4.767 17.541,4.496 17.095,4.312C16.65,4.127 16.173,4.032 15.691,4.032M9.966,11.485C11.067,11.482 12.123,11.043 12.901,10.263C13.679,9.483 14.116,8.426 14.116,7.324C14.116,6.223 13.678,5.167 12.9,4.389C12.121,3.61 11.066,3.173 9.965,3.173C8.864,3.173 7.808,3.61 7.029,4.389C6.251,5.167 5.814,6.223 5.814,7.324C5.814,8.426 6.251,9.483 7.029,10.262C7.807,11.042 8.863,11.482 9.965,11.484M14.651,20.827C15.003,20.827 15.348,20.729 15.648,20.544C15.948,20.359 16.191,20.095 16.35,19.781C16.509,19.467 16.578,19.115 16.55,18.764C16.521,18.413 16.396,18.076 16.188,17.792C15.459,16.824 14.521,16.034 13.443,15.48C12.366,14.927 11.177,14.625 9.966,14.596C8.755,14.625 7.566,14.927 6.488,15.481C5.41,16.035 4.472,16.825 3.744,17.793C3.536,18.077 3.412,18.413 3.383,18.764C3.355,19.115 3.424,19.466 3.583,19.78C3.742,20.094 3.984,20.358 4.284,20.543C4.583,20.728 4.928,20.826 5.28,20.827L14.651,20.827Z" style="fill:none;fill-rule:nonzero;stroke:rgb(237,28,36);stroke-width:1.5px;"/>
</svg>
